<svg xmlns="http://www.w3.org/2000/svg" version="1.1" xmlns:xlink="http://www.w3.org/1999/xlink" xmlns:svgjs="http://svgjs.dev/svgjs" width="1000" height="217" viewBox="0 0 1000 217"><g transform="matrix(1,0,0,1,-0.60605105871349,-0.5509808292259635)"><svg viewBox="0 0 396 86" data-background-color="#ffffff" preserveAspectRatio="xMidYMid meet" height="217" width="1000" xmlns="http://www.w3.org/2000/svg" xmlns:xlink="http://www.w3.org/1999/xlink"><g id="tight-bounds" transform="matrix(1,0,0,1,0.2399962192505427,0.21836106596052218)"><svg viewBox="0 0 395.52 85.56327516778524" height="85.56327516778524" width="395.52"><g><svg viewBox="0 0 395.52 85.56327516778524" height="85.56327516778524" width="395.52"><g><svg viewBox="0 0 395.52 85.56327516778524" height="85.56327516778524" width="395.52"><g id="textblocktransform"><svg viewBox="0 0 395.52 85.56327516778524" height="85.56327516778524" width="395.52" id="textblock"><g><svg viewBox="0 0 395.52 85.56327516778524" height="85.56327516778524" width="395.52"><g transform="matrix(1,0,0,1,0,0)"><svg width="395.52" viewBox="1.25 -37.25 223.47999572753906 48.349998474121094" height="85.56327516778524" data-palette-color="#bcbd8b"><path d="M41.7-3.3L46.4-2.35 46.35 0 30.45 0 30.15-1.6Q31.6-2.55 34.4-3.65L34.4-3.65 34.25-17.1 34.95-25.65 25.7-0.8 19.95 0.35 10.65-25.4 11.45-17.1 11.2-3.2 15.4-2.35 15.35 0 1.55 0 1.25-1.6Q2.9-2.6 5.7-3.75L5.7-3.75 6.4-29.3 2.3-30.15 2.35-32.5 15.55-32.5 15.5-32.45 24.35-7.8 33.4-32.5 45.05-32.5 45.35-30.9Q43.75-29.9 41.25-28.9L41.25-28.9 41.7-3.3ZM73.2-23.75L73.35-21.55Q72-20.75 70.55-20.25L70.55-20.25Q67.55-9.6 65.35-3.7L65.35-3.7Q63.35 1.1 60.2 4.7 57.05 8.3 52.1 11.1L52.1 11.1 48.25 4.55Q54.85 2.7 58.4-0.25L58.4-0.25Q56.35-0.75 54.65-1.9L54.65-1.9 48.2-19.7 44.8-21.15 44.8-23.75 58.1-23.75 58.25-21.55 55.65-20.25 58.5-10.7 59.1-6.35 60-6.35Q62.15-13.2 63.2-20.15L63.2-20.15 60.6-21.15 60.65-23.75 73.2-23.75ZM103.34-3.1L106.45-2.6 106.4 0 96.35 0 86.15-14.3 84.1-12.15 84.1-3.15 88.3-2.55 88.25 0 72.55 0 72.25-1.6Q73.7-2.55 76.5-3.65L76.5-3.65 76.5-29.8 72.6-30.35 72.65-32.9 88-32.9 88.3-31.3Q86.45-30.2 84.1-29.25L84.1-29.25 84.1-18.05 95.15-29.85 91.85-30.35 91.9-32.9 104.3-32.9 104.59-31.3Q103.55-30.6 100.45-29.45L100.45-29.45 91.1-19.55 103.34-3.1ZM113.94-27.9L113.94-27.9Q110.79-29.3 108.69-31.95L108.69-31.95Q110.34-35.25 112.99-37.25L112.99-37.25Q115.99-35.65 118.04-32.85L118.04-32.85Q116.64-29.85 113.94-27.9ZM117.19-22.5L117.19-3.95Q119.54-3.2 120.84-2.45L120.84-2.45 120.64 0 106.29 0 106.14-1.7Q107.64-2.55 109.94-3.35L109.94-3.35 109.94-20.1 106.19-20.55 105.84-22.95Q110.14-24.6 114.74-24.7L114.74-24.7 117.19-22.5ZM134.79-4.85L134.79-4.85Q136.19-4.85 138.99-5.5L138.99-5.5 139.54-3.05 131.84 0.8Q129.69 0.9 127.74-0.65 125.79-2.2 125.74-4.15L125.74-4.15 125.74-18.6 122.24-18.55 122.04-21.15Q123.94-22.5 126.09-23.55L126.09-23.55 128.59-30.05 131.99-30.05 132.84-23.55 139.69-23.55 139.79-21.4 137.34-18.5 132.99-18.5 132.99-7.15Q132.99-5.85 133.39-5.35 133.79-4.85 134.79-4.85ZM162.34-3.05L155.24 0.7 153.69 0.8Q148.39 0.8 144.91-2.75 141.44-6.3 141.44-11.85L141.44-11.85Q141.44-17.55 144.91-21.18 148.39-24.8 153.69-24.8L153.69-24.8Q156.74-24.8 159.21-23.4 161.69-22 162.84-19.4L162.84-19.4 157.39-15.65Q154.44-19.65 151.19-20.7L151.19-20.7Q148.54-17.85 148.54-13.1L148.54-13.1Q148.54-9.15 150.46-6.68 152.39-4.2 155.89-4.2L155.89-4.2Q158.44-4.2 161.29-5.55L161.29-5.55 162.34-3.05ZM189.99-16.55L189.99-3.9Q191.99-3.35 193.59-2.45L193.59-2.45 193.39 0 180.14 0 179.99-1.7 182.74-2.95 182.74-14.45Q182.74-19.35 179.49-19.35L179.49-19.35Q177.84-19.35 174.89-17.65L174.89-17.65 174.89-3.8Q176.64-3.25 177.94-2.45L177.94-2.45 177.74 0 164.09 0 163.94-1.7Q165.34-2.5 167.64-3.3L167.64-3.3 167.64-32.25 163.89-32.65 163.53-35.05Q167.84-36.7 172.44-36.8L172.44-36.8 174.89-34.6 174.89-20.05Q179.84-23.7 183.24-24.55L183.24-24.55Q185.54-24.4 187.54-23 189.54-21.6 189.84-19.4L189.84-19.4 189.99-16.55ZM221.18-16.55L221.18-3.9Q223.63-3.15 224.73-2.45L224.73-2.45 224.53 0 211.33 0 211.18-1.7 213.93-2.95 213.93-14.45Q213.93-19.35 210.68-19.35L210.68-19.35Q209.13-19.35 205.98-17.6L205.98-17.6 205.98-3.8Q207.73-3.25 209.03-2.45L209.03-2.45 208.83 0 195.23 0 195.08-1.7Q196.43-2.45 198.73-3.3L198.73-3.3 198.73-20.1 194.98-20.55 194.63-22.95Q198.93-24.6 203.53-24.7L203.53-24.7 205.98-22.3 205.98-20Q211.03-23.7 214.43-24.55L214.43-24.55Q216.73-24.4 218.73-23 220.73-21.6 221.03-19.4L221.03-19.4 221.18-16.55Z" opacity="1" transform="matrix(1,0,0,1,0,0)" fill="#bcbd8b" class="wordmark-text-0" data-fill-palette-color="primary" id="text-0"></path></svg></g></svg></g></svg></g></svg></g><g></g></svg></g><defs></defs></svg><rect width="395.52" height="85.56327516778524" fill="none" stroke="none" visibility="hidden"></rect></g></svg></g></svg>